<svg version="1.0" xmlns="http://www.w3.org/2000/svg" width="960" height="960" viewBox="0 0 720 720"><path d="M336.1 34c-79 6.2-151.5 39.5-207 95.1-75.4 75.4-109 181.1-91 286.8C59.3 540.7 154.3 644.2 277 676.1c28.4 7.4 52 10.3 83 10.3s54.6-2.9 83-10.3C556.2 646.7 646.7 556.2 676.1 443c7.4-28.4 10.3-52 10.3-83s-2.9-54.6-10.3-83C644.2 154.3 540.7 59.3 415.9 38.1c-24.7-4.2-57-5.9-79.8-4.1zm21.9 8.4v7.4l-7.2.6c-4 .3-10.7.8-14.9 1l-7.6.6-.7-6.2c-1-10-1.2-9.6 4.2-10.1 2.6-.2 9.5-.4 15.5-.5L358 35v7.4zm34.7-6c.3.2.2 3.9-.2 8l-.7 7.6-8.7-.5c-4.7-.3-11.4-.8-14.8-1.1l-6.3-.6V34.7l15.1.6c8.3.3 15.3.8 15.6 1.1zm-66.4 9.3.7 6.2-4.8.6c-7.5 1-22.5 3.5-24.3 4.1-1.3.3-1.9-.8-2.8-5.3-.6-3.2-1.4-6.7-1.7-7.9-.5-1.9.2-2.2 9.3-3.8 5.4-.9 12.5-2 15.8-2.4 7-.9 6.9-1 7.8 8.5zm91-6.1c9.1 1.6 9.8 1.9 9.3 3.8-.3 1.2-1.1 4.7-1.7 7.9-1.1 5.2-1.4 5.8-3.3 5.3-1.2-.3-6.6-1.2-12.1-2.1-18.7-2.8-16.7-1.9-16-7.3.3-2.6.8-6.1 1.1-7.8l.4-3.1 6.3.8c3.4.5 10.6 1.6 16 2.5zm-124.1 9.6c.9 4 1.5 7.4 1.3 7.6-.3.4-26.6 7.4-28.4 7.6-1.2.1-2.6-3-5.5-12.1-.7-2.3.1-2.7 19.4-7.8 12.2-3.3 11.4-3.6 13.2 4.7zm145.1-5.1a382 382 0 0 1 14.9 4l6.6 2-1.5 5.1c-2.8 9.5-3.1 10.1-5.6 9.4-1.2-.3-7.8-2.1-14.7-4-6.9-1.8-12.5-3.7-12.5-4.2.1-3.4 2.9-14.4 3.7-14.4.5 0 4.6.9 9.1 2.1zM260.9 57.2c1.2 3.4 2.1 6.7 2.1 7.4 0 .7-1.7 1.8-3.7 2.5-2.1.6-8.2 2.9-13.6 5-5.3 2.2-10.1 3.9-10.6 3.9-.4 0-2.2-3.1-3.9-6.9l-3-6.9 12.6-5c15.6-6.1 15.4-6 16.9-6.1.6-.1 2.1 2.7 3.2 6.1zm218.2 0 12.7 5-2.5 5.6c-4.4 10.1-3.1 9.6-13.6 5.3-5.2-2.1-11.6-4.6-14.4-5.5l-5.1-1.7 2.5-7.5c3-8.9 1.3-8.8 20.4-1.2zM403.5 55c33.6 5 63 14.2 92.5 29 32.1 16 58 34.9 83.6 61.1 48.7 49.9 78.3 113.8 85.4 183.8 1.5 15.1 1.2 48.5-.5 63.6-6.7 58.5-27.6 109.4-64.1 156.5-10.9 14-34.2 37.6-48.4 49-45.3 36.1-97.1 58-155.5 65.6-16.3 2.2-54.3 2.4-70 .5-60.4-7.2-112.7-28.9-159.1-65.9-13.6-10.7-36.4-33.5-46.9-46.7-24.2-30.3-44-67.7-55-104C57 419.5 53 390.9 53 359c0-37.6 4.9-67.4 16.6-101.1 16-45.8 40.9-84.7 76.7-119.5 50.2-48.9 113-78 184.3-85.3 15.4-1.6 56.9-.6 72.9 1.9zM230.6 70.9c2.2 5.1 2.5 6.6 1.4 6.9-.7.3-6.8 3.3-13.5 6.7l-12.1 6.2-3.7-6.5c-2.1-3.6-3.4-6.9-2.9-7.4 2-2 26.6-13.8 27.2-13.1.4.4 2 3.7 3.6 7.2zm282.2 1.7c4.5 2.5 8.2 4.7 8.2 4.9 0 .3-6.8 12.4-7.5 13.3-.4.5-26-12.8-26.3-13.7-.1-.4 1.1-3.7 2.8-7.4l3-6.7 5.8 2.6c3.1 1.4 9.4 4.5 14 7zm-313.2 13c2 3.6 3.3 6.9 2.8 7.4-.5.4-4.9 3.4-9.9 6.6-4.9 3.3-10.2 6.7-11.6 7.6l-2.5 1.8-4.2-6c-2.3-3.2-4.2-6.3-4.2-6.7 0-.6 24.7-17.3 25.6-17.3.2 0 2 3 4 6.6zm340.1 3.3c5.7 3.6 10.3 7 10.3 7.5 0 .7-5.8 9.3-8.1 12-.5.5-4.5-1.5-9.1-4.6-4.6-3.1-10.2-6.7-12.5-8.2l-4.2-2.6 4.1-7 4-7.1 2.7 1.7c1.4.9 7.2 4.6 12.8 8.3zm-367.2 14.2c2 2.8 3.8 5.6 4.1 6.2.2.7-1.5 2.5-3.8 4.1-2.2 1.6-7.4 5.8-11.5 9.3-4.1 3.4-7.8 6.3-8.1 6.2-.4-.1-2.9-2.6-5.7-5.6l-5-5.5 3.5-3c9.1-7.9 20.6-16.7 21.7-16.8.6 0 2.8 2.3 4.8 5.1zm388.9 1.3c4.4 3.5 9.9 8 12.1 9.9l4 3.5-5.7 6-5.7 6-5.3-4.6c-2.9-2.5-8.1-6.8-11.6-9.5-3.5-2.8-6.1-5.5-5.8-6.2 1-2.6 7.8-11.5 8.8-11.5.6 0 4.7 2.9 9.2 6.4zm-414 20.3 5 5.4-11.2 11.1-11.1 11.2-5.4-5c-3-2.7-5.5-5.3-5.6-5.7-.1-1.1 21.5-22.7 22.6-22.6.4.1 3 2.6 5.7 5.6zm439.5 1.9c4.5 4.2 9.5 9.3 11.1 11.4l3.1 3.9-5.2 4.8c-2.8 2.6-5.6 5-6.1 5.2-1.1.4-21.8-19.8-21.8-21.3 0-1 9.1-11.3 10.2-11.5.3-.1 4.3 3.3 8.7 7.5zM124 148.3c4.5 4.3 5 5.1 3.8 6.7-.7 1-4.9 6.2-9.3 11.6-4.3 5.5-8 10.1-8.2 10.3-.4.6-11.5-7.3-12-8.6-.5-1.3 2.1-5 12.6-17.6 3.5-4.3 6.8-7.6 7.2-7.5.4.2 3 2.5 5.9 5.1zm488.8 6.8c5 6.3 9.1 12 9 12.7-.2.8-3.1 3.3-6.4 5.8l-6.2 4.4-4.3-5.8c-2.3-3.1-6.6-8.5-9.6-11.9l-5.3-6.1 5.7-5.6c3.2-3.1 6.3-5.4 6.8-5.3.6.2 5.2 5.5 10.3 11.8zm-510.4 18.6c2.8 2 5.5 4 5.9 4.3.4.4-1.6 4.3-4.6 8.6-3 4.3-6.6 10-8.1 12.6l-2.7 4.6-7-4-7-4 1.7-2.7c7.6-12.2 15.1-23.1 15.8-23.1.4 0 3.1 1.7 6 3.7zm528.2 5.6c3.3 5 7 10.8 8.2 12.9l2.2 3.6-7.2 4.2c-6.5 3.7-7.4 4-8.3 2.5-.5-.9-4.2-6.6-8.1-12.6l-7.1-10.9 6.1-4.5c3.3-2.4 6.6-4.4 7.1-4.4.6-.1 3.7 4.1 7.1 9.2zM84.2 202.6c3.5 2.1 6.4 3.8 6.5 3.8.4.3-12.9 26.1-13.6 26.4-.4.1-3.7-1.1-7.4-2.8l-6.7-3 2.6-5.8c2.8-6.4 11.3-22.2 11.9-22.2.2 0 3.2 1.6 6.7 3.6zm565.4 9c3.4 6.5 6.4 12.7 6.6 13.8.2 1.4-1.3 2.5-7.1 5.1l-7.4 3.3-6.4-12.9c-3.5-7.1-6.4-13.1-6.4-13.5-.1-.9 12.4-8.3 13.5-8 .5.1 3.8 5.6 7.2 12.2zM76.5 235.1c-.1.2-2.5 6.8-5.4 14.5l-5.4 14.2-7.4-2.5c-8.8-3-8.7-1.3-1.1-20.4l5-12.8 7.1 3.3c4 1.8 7.2 3.4 7.2 3.7zm587.6 8.9c2.7 7.1 4.9 13.3 4.9 13.9 0 1.2-15.2 6.3-16.1 5.3-.3-.4-1.7-3.9-2.9-7.7-1.3-3.9-3.6-9.9-5.1-13.5l-2.8-6.5 7.7-3.6c6.3-3 7.8-3.4 8.5-2.2.5.7 3.1 7.2 5.8 14.3zM62.8 264.1c1.8.7 2.3 1.5 1.9 3.2-.5 2.6-7 27.1-7.2 27.4-.4.7-15.5-3.2-15.5-4 0-1.3 3.8-16.1 6.1-23.9l2-6.6 5.1 1.5c2.8.8 6.2 1.9 7.6 2.4zm611.6 12c2 7.4 3.6 13.9 3.6 14.5 0 .9-15.8 5-16.5 4.2-.2-.3-6.2-23-7.2-27.5-.5-1.9.3-2.4 7.3-4.6 6-1.9 8.1-2.2 8.6-1.3.4.7 2.3 7.3 4.2 14.7zm-623.1 19c5.8 1.2 5.9 1.2 5.4 4.3-.3 1.7-1.3 8.6-2.3 15.4l-1.8 12.3-5.6-.6c-11.5-1.3-10.8-.7-9.8-7.8.4-3.4 1.5-10.6 2.4-16 1.6-9.1 1.9-9.8 3.8-9.3 1.2.3 4.7 1.1 7.9 1.7zm629.1 7.6c.9 5.4 2 12.6 2.4 16 1 7.1 1.7 6.6-10.4 7.8l-6 .7-1.7-11.9c-.9-6.5-2-13.4-2.3-15.3l-.6-3.6 7.4-1.5c4-.9 7.8-1.7 8.4-1.8.6 0 1.8 4 2.8 9.6zM52 328.5c.3.2.1 6.9-.4 14.9l-.9 14.6H35v-8.8c0-4.8.3-11.8.7-15.6l.6-6.8 7.6.7c4.2.4 7.8.8 8.1 1zm632.4 4.6c.3 3.4.6 10.4.6 15.5v9.4h-16.8l-.7-14c-.4-7.7-.7-14.3-.6-14.7.1-.8 6.7-1.9 13.2-2.1l3.6-.2.7 6.1zM51.7 376.2c.5 7.9.7 14.6.4 15-.3.3-4 .9-8.2 1.3l-7.6.7-.6-6.8c-.4-3.8-.7-10.8-.7-15.7V362h15.7l1 14.2zm633.1.9c-.3 8.2-.8 15.3-1.1 15.6-.3.3-4.3.1-8.9-.3l-8.3-.9.2-3c.1-1.7.4-8.3.8-14.8l.7-11.7h17.1l-.5 15.1zM53.4 396.7c.3 2.1 1.3 8.5 2.2 14.3.9 5.8 1.7 10.9 1.8 11.4.1.7-12.2 4.3-15.5 4.6-.6 0-3.3-14.5-4.8-25.7l-.8-6.3 3.1-.5c12.8-2 13.4-2 14 2.2zm627.7-2.1c2.5.5 2.5.6 1.7 6.7-1.4 11.3-4.1 25.7-4.7 25.6-.3 0-4.2-.8-8.6-1.8-5.5-1.2-8-2.2-7.9-3.2.1-.8.8-5.7 1.7-10.9.9-5.2 1.9-11.5 2.2-13.8l.7-4.4 6.2.7c3.3.3 7.3.8 8.7 1.1zM58.4 426.2c.2.7 1.8 6.7 3.6 13.3 1.8 6.6 3.4 12.7 3.7 13.6.5 1.6-1.5 2.5-14.4 6.4-.7.2-2-2.3-3.2-6.3-2.3-7.8-6.1-22.6-6.1-24 0-.5 3-1.6 6.8-2.4 8.7-2 9.2-2 9.6-.6zm611.8.5c4.3.9 7.8 2.1 7.8 2.7 0 1.6-7 27.8-7.8 29.2-.5.9-2.6.6-8.7-1.3-4.4-1.4-8.1-2.6-8.3-2.8-.2-.1 5.9-23.9 7.3-28.3.5-1.5.4-1.5 9.7.5zM68.6 461.2c.9 2.8 3.4 9.3 5.5 14.5 2.1 5.1 3.6 9.3 3.5 9.3-.2 0-3.7 1.5-7.9 3.4l-7.5 3.5-5-12.8c-7.6-19.1-7.7-17.4 1-20.4 4-1.4 7.6-2.6 8-2.6.3-.1 1.4 2.2 2.4 5.1zm592.7-2.6c9.2 3.1 9.1 1.2 1.6 20.5l-5 12.8-7.7-3.5c-4.2-1.9-7.8-3.7-8.1-4-.3-.2.1-1.9.8-3.7.7-1.8 3.1-8 5.4-14 2.2-5.9 4.3-10.7 4.6-10.7.3 0 4.1 1.2 8.4 2.6zM91.1 510.5c.5.5.9 1.2.9 1.6 0 1.4-14.3 9-15.2 8.1-2-2-13.8-26.6-13.1-27.3.4-.4 3.9-2 7.8-3.7l6.9-3 5.9 11.6c3.2 6.5 6.3 12.1 6.8 12.7zm559.4-20.4c7.5 3.4 7.6 2.1-.5 17.8-7.6 14.8-6.3 14-15 8.9-4-2.3-7.3-4.5-7.3-4.8 0-.3 2.9-6.2 6.4-13.2 7.1-14.3 5.7-13.6 16.4-8.7zm-14.2 31.4 4.8 2.7-2.1 3.6c-5.2 8.7-14.6 22.2-15.5 22.2-.5-.1-4-2.3-7.6-5l-6.7-4.9 8.2-12.4 8.1-12.5 3 1.8c1.7.9 5.2 3 7.8 4.5zm-534.6 6.2c4.3 6.5 7.9 12.1 8.1 12.4.3.7-12.2 9.9-13.5 9.9-.8 0-15.9-22.7-16.5-24.8-.2-1 11.2-8.8 13.4-9.1.3-.1 4.2 5.2 8.5 11.6zm520.7 24.2c.6.9-18.8 24.6-20.1 24.6-.5 0-3.8-2.6-7.2-5.7l-6.2-5.8 7.3-8.7c4-4.9 8.3-10.2 9.6-12l2.3-3.2 7 5.1c3.8 2.8 7.1 5.4 7.3 5.7zm-502.4.8c4.7 5.8 8.9 11.1 9.4 11.7.6.9-1 3-4.9 6.7-3.1 3-6.2 5.4-6.8 5.4-1.3 0-19.7-22.5-19.7-24.2 0-1 11.7-10.2 13-10.2.3 0 4.3 4.8 9 10.6zm475.9 20.7 5.2 4.7-3.1 3.9c-3.5 4.4-18.8 19-19.8 18.9-.4 0-3.2-2.9-6.3-6.4l-5.7-6.4 10.7-10.8c11.9-12.1 10.6-11.9 19-3.9zm-443.5 15.4c-.2 1.5-9.5 11.9-10.8 12.1-1.1.1-22.6-21.4-22.5-22.5 0-.5 2.8-3.3 6.1-6.2l6-5.4 10.6 10.4c5.9 5.6 10.6 10.9 10.6 11.6zm419.1 7.1 6 6.3-4 3.5c-2.2 1.9-7.9 6.6-12.7 10.4l-8.7 6.9-4.2-5.8c-2.3-3.1-4.8-6.4-5.6-7.3-1.1-1.4 0-2.6 9.1-9.8 5.8-4.5 11-8.9 11.7-9.7 1.5-1.9 1.4-2 8.4 5.5zm-405.7 2.7c5.9 4.8 11.1 9 11.6 9.4.9.9-8 14-9.6 14-1 0-14.1-10-21.3-16.3l-4-3.5 5.5-6c3-3.3 5.8-6 6.3-6.1.4 0 5.6 3.8 11.5 8.5zm379.6 17.8c2.5 3.6 4.6 6.8 4.6 7.3 0 .8-14.4 10.6-22.2 15.3l-3.6 2.1-4.2-7.3c-2.3-4-4.2-7.5-4.3-7.9-.3-1 23.6-16.7 24.5-16.2.3.2 2.7 3.2 5.2 6.7zm-354.8.3c4.9 3.3 9.9 6.5 11.2 7.2 1.2.6 2.2 1.6 2.2 2 0 .5-1.8 4.1-4.1 8l-4.1 7.1-3.6-2.2c-9.1-5.4-22.2-14.4-22.2-15.1 0-1.8 9.3-13.8 10.4-13.4.7.3 5.2 3.2 10.2 6.4zM517 635.2c3.9 6.8 4 7.3 2.3 8.6-4 2.9-25.7 13.2-26.3 12.5-1.1-1.1-7.2-15.4-6.8-15.8 1.3-1.1 25.4-13.1 26-12.8.3.2 2.5 3.6 4.8 7.5zm-297-1.3c6.3 3.2 12.1 6 12.9 6.2 1 .4.6 2.1-1.9 7.9-1.8 4.1-3.5 7.9-4 8.3-.6.7-22.3-9.6-26.3-12.5-1.7-1.3-1.6-1.8 2.3-8.6 2.3-4 4.5-7.2 4.8-7.2.4 0 5.9 2.6 12.2 5.9zm268.2 15.6 3.6 8.4-12.8 5c-19.2 7.5-17.3 7.7-20.5-1.9-1.5-4.5-2.3-8.5-1.9-8.9.5-.4 5-2.2 9.9-4.1 5-1.8 10.8-4.1 13-5.1 2.2-1 4.2-1.8 4.5-1.8.3 0 2.2 3.7 4.2 8.4zm-241.5-3.6c5.4 2.1 11.5 4.4 13.6 5 2 .7 3.7 1.6 3.7 1.9 0 .4-1.2 4.2-2.6 8.5-3.1 9.2-1.2 9.1-20.5 1.6l-12.8-5 3.4-7.6c1.9-4.1 3.5-7.7 3.5-7.9 0-.9 2.6-.2 11.7 3.5zm29.9 10c5.6 1.6 12 3.2 14.3 3.6 2.2.4 4.1 1.2 4.1 1.8 0 3.5-3.5 16.7-4.4 16.7-1.7 0-27.8-7-29.2-7.8-.9-.5-.6-2.7 1.4-9 1.4-4.5 2.8-8.2 3.1-8.2.3 0 5.2 1.3 10.7 2.9zm180.7 5.3c1.9 5.9 2.3 8.4 1.5 8.9-1.2.7-21.8 6.4-27.4 7.5l-3 .6-1.7-7.9c-.9-4.3-1.7-8.4-1.7-9 0-.6 2.4-1.7 5.3-2.3 2.8-.6 8.8-2.1 13.2-3.5 4.4-1.3 8.7-2.4 9.5-2.4 1.1-.1 2.4 2.4 4.3 8.1zM311 663.5c5.2.8 11 1.5 12.9 1.5h3.3l-.6 6.7c-1.2 11.8-1.2 12-4.9 11.6-5.2-.7-28.2-4.5-28.5-4.7-.2-.3 2.5-13.8 3.4-16.5.3-.8 1.2-1.1 2.7-.8 1.2.4 6.5 1.3 11.7 2.2zm114.1 6c1 4.4 1.8 8.3 1.8 8.6.1.6-14.3 3.3-25.6 4.7-7.1 1-6.6 1.7-7.9-11.1l-.6-6.7 3.8-.1c2.2 0 8.2-.9 13.4-1.9 13.8-2.5 13.1-2.8 15.1 6.5zm-74.8-2.5h7.7v18h-9.4c-5.1 0-12.1-.3-15.5-.7l-6.3-.6.7-8.1c.4-4.5 1-8.5 1.3-9 .2-.5 3.5-.6 7.1-.2 3.6.3 10.1.6 14.4.6zm42.1 7.6c.4 4.7.5 8.8.2 9.1-.3.3-7.3.8-15.5 1.1l-15.1.5v-18.2l9.8-.4c5.3-.1 12-.4 14.8-.5l5.1-.2.7 8.6z"/><path d="M328 63.9c0 .5.7 1.1 1.5 1.4.8.4 3.8 5.2 6.6 10.9l5.2 10.3-4.8 9.3c-3.2 6.4-5.5 9.6-7.1 10.2-4.3 1.7-2.6 3 3.6 3 4.5 0 6-.4 6-1.4 0-.8-.6-1.6-1.2-1.9-.9-.3-.2-2.6 2.3-7.8l3.6-7.4 3.7 7.2c4.1 8.3 4.1 8.3 2.1 8.3-.8 0-1.5.7-1.5 1.5 0 1.2 1.4 1.5 6.4 1.5 6.8 0 9-1.2 5.7-2.9-2.2-1.2-12.1-19-12.1-21.8 0-3.2 8.3-17.7 10.8-18.8 3.7-1.7 2.5-2.5-3.8-2.5-3.3 0-6 .4-6 1 0 .5.5 1 1 1 .6 0 1 .7 1 1.5 0 1.7-5.2 12.5-6 12.5-.5 0-7-12.5-7-13.5 0-.3.6-.5 1.4-.5.8 0 1.8-.5 2.1-1 .4-.6-2-1-6.4-1-3.9 0-7.1.4-7.1.9z"/><path d="M363 64c0 .5.6 1 1.4 1 2.3 0 2.6 2.4 2.6 21.5 0 17.4-.1 18.5-2 19.5-3.7 2-2 3 5 3 4.4 0 7-.4 7-1.1 0-.6-.9-1.3-2-1.6-1.9-.5-2-1.4-2-20.5s.1-20 2-20.5c4.3-1.1 1.7-2.3-5-2.3-4 0-7 .4-7 1zM379 64c0 .5.6 1 1.4 1 2.3 0 2.6 2.4 2.6 21.5 0 17.4-.1 18.5-2 19.5-3.7 2-2 3 5 3 4.4 0 7-.4 7-1.1 0-.6-.9-1.3-2-1.6-1.9-.5-2-1.4-2-20.5s.1-20 2-20.5c4.3-1.1 1.7-2.3-5-2.3-4 0-7 .4-7 1zM224.3 93.3c-2.9 1.7-5.3 3.5-5.3 3.9 0 .4 1.2.8 2.7 1 2.4.3 4.2 2.5 12.5 15.8 5.4 8.5 9.8 16.2 9.8 17.1 0 2.2-2 3.9-4.8 3.9-2.3 0-20.5-10.1-21.8-12.1-.4-.6-1-5-1.4-9.8-.5-6.5-.4-9.3.6-11.5.8-1.6 1.2-3.1 1-3.4-.8-.8-10.1 5.4-9.6 6.4.3.5 1 .8 1.7.6.7-.1 1.5.8 1.7 2 .7 3 1.2 12.8.7 12.8-.9 0-11.1-6.2-11.7-7.1-.3-.5-.1-1.6.6-2.4 2.2-2.7-.7-2.3-5.6.8-5.5 3.5-6.5 5.1-3.4 5.3 1.1.1 6.2 2.7 11.4 5.8l9.5 5.6.6 5.8c.3 3.1.8 7.7 1 10.2.4 3.1 0 5.2-1 6.5-3.2 4.3-1.4 4.6 5 .8 4.9-3 5.6-4.3 2.5-4.3-1.1 0-2-.1-2.1-.3-.5-1.7-1.3-15.7-.9-15.6.3 0 3.2 1.7 6.5 3.8 4.7 2.9 5.9 4.2 5.8 5.9-.2 1.2.1 2.2.6 2.2 1.5 0 11.1-6.2 11.1-7.1 0-.5.3-.8.8-.7.4.2 3.3-1.3 6.5-3.2 5.6-3.4 7.5-5.7 3.8-4.7-1 .2-2.3.2-2.9-.2-1.7-1.1-20.2-31.7-20.2-33.5 0-.9.5-1.6 1-1.6.6 0 1-.5 1-1 0-1.7-2.3-1-7.7 2.3zM502 100.2c0 .8.5 1.9 1.2 2.6.8.8-1.4 5.2-9.1 18.2-8.5 14.1-10.6 17-12.1 16.5-4.3-1.4-2.5 1.6 3 4.8 3.3 2 6.2 3.2 6.5 2.7.3-.5.1-1.1-.5-1.5-2.1-1.3-.7-4.4 8.8-20 8.2-13.5 10.1-16 12-15.8 3.8.5 2.4-2.1-3.1-5.2-6.8-3.9-6.7-3.9-6.7-2.3zM108.5 201c-1.5 2.3-2.9 4.8-3.2 5.6-.6 1.7.8 1.9 2.4.3.8-.8 1.8 0 3.8 3.2 1.5 2.4 3.4 5.4 4.1 6.6 1.4 2.3 1.4 2.3-3.8 2.3-7.2 0-9.8-.9-9.8-3.1 0-1.1-.4-1.9-.9-1.9-.9 0-7.1 9.6-7.1 11.1 0 1.2 1.7 1.1 2.5-.2.4-.6 2.7-.8 5.8-.5 2.9.3 8.2.8 11.9 1.1l6.8.7 5.1 8.5c3.3 5.3 5.2 9.6 5.1 11.4-.1 4 1.3 3.6 4.3-1.1s3.2-6.3.6-5.5c-1.5.4-2.7-.8-6-6-2.2-3.7-4.1-6.7-4.1-6.9 0-.4 9.2.3 13.6 1 2.6.4 3.1.8 2.7 2.4-1 3.8 1.6 1.9 4.6-3.4 1.7-2.9 3.1-5.5 3.1-5.7 0-.2-5.3-.4-11.8-.4-6.4 0-12.8-.4-14.2-.7-3.3-.9-12.4-16.1-11.7-19.5.7-4-1.1-3.6-3.8.7zM607.5 201.2c.4 1.6 0 2.7-1.2 3.4-1 .6-8.6 5-17 9.8-13.5 7.8-15.3 8.6-17.2 7.5-3.3-2.2-3.3-.5.1 5.4 3.4 5.8 6 7.4 5.5 3.5-.2-1.9 2.3-3.7 16.5-12 14.7-8.6 17-9.7 18.7-8.6 3.3 2.1 3.3.4-.1-5.5-3.4-5.7-6.3-7.7-5.3-3.5zM615.7 215.2c.4 2-1.6 3.5-16.7 12.2-12.7 7.3-17.4 9.6-18.3 8.7-.6-.6-1.7-1.1-2.4-1.1-.9 0-.3 2 1.9 6 1.8 3.3 3.9 6 4.6 6 .9 0 1.1-.7.7-1.9-.7-2.3.3-3 19.2-14 12.5-7.1 14.5-8 16.2-6.9 3.4 2.1 3.3.3-.1-5.5s-5.9-7.5-5.1-3.5zM106 337.2c0 1.5-19.7 12.8-22.2 12.8-2.8-.1-17.3-8.6-18.3-10.8-1.9-4.3-3.5-2.6-3.5 3.8 0 4.7.3 6 1.5 6 .8 0 1.5-.7 1.5-1.5s.2-1.5.5-1.5c1 0 13.5 6.5 13.5 7s-12.4 7-13.4 7c-.2 0-.6-.9-.9-2.1-1.1-4.1-2.5-.9-2.2 5.1.2 6.9 1 8.2 2.9 5.4.8-1 5.7-4.2 10.9-6.9l9.6-5 9.6 4.8c6.3 3.1 9.9 5.5 10.2 6.7.3 1.1 1.2 2 1.9 2 1 0 1.4-1.5 1.4-5.4 0-5.8-1.2-7.8-2.9-4.9-.9 1.6-1.5 1.5-8-1.7-3.9-1.8-7.1-3.7-7.1-4 0-.7 12.6-7 14-7 .6 0 1 .7 1 1.6 0 .9.6 1.4 1.3 1.1 1.5-.5 1.4-13-.2-13.5-.6-.2-1.1.3-1.1 1zM610.2 344c0 4.9.4 7 1.3 7 .7 0 1.5-.9 1.8-2 .5-1.9 1.4-2 20.5-2 19.4 0 20 .1 20.5 2.1 1.1 4.1 2.7.7 2.7-5.7 0-5-.3-6.4-1.5-6.4-.8 0-1.5.6-1.5 1.4 0 2.3-2.4 2.6-21.7 2.6-17.6 0-18.5-.1-19-2-.3-1.1-1.1-2-1.9-2-.9 0-1.3 1.8-1.2 7zM610.9 353.4c-.2.2-.2 3.4-.1 7 .4 6.5 1.5 8.5 2.5 4.6.5-1.9 1.4-2 20.5-2 19.2 0 20.1.1 20.7 2 1.3 4.1 2.5 1.8 2.5-5 0-5.6-.3-7-1.5-7-.8 0-1.5.6-1.5 1.4 0 2.3-2.4 2.6-21.7 2.6-17.6 0-18.5-.1-19-2s-1.4-2.5-2.4-1.6zM611 376c0 4 .4 7 1 7s1-.6 1-1.4c0-2.3 2.4-2.6 22.2-2.6 18.1 0 19 .1 19.5 2 1.1 4.3 2.3 1.7 2.3-5 0-7.3-.6-8.4-2.8-5-1.1 1.9-2.3 2-20.8 2-18.7 0-19.6-.1-20.1-2-1.1-4.3-2.3-1.7-2.3 5zM63 379c0 6.7 1.2 9.3 2.3 5 .5-1.9 1.4-2 20.5-2 19.4 0 20 .1 20.5 2.1 1.1 4.1 2.7.7 2.7-5.7 0-5-.3-6.4-1.5-6.4-.8 0-1.5.6-1.5 1.4 0 1.1-3.7 1.5-18.3 2.1-18.9.8-22.7.4-22.7-2.1 0-.8-.4-1.4-1-1.4s-1 3-1 7zM120.7 453.9c.6 2.3-.9 3.4-19.1 13.6-11.8 6.7-14.1 7.7-15.7 6.7-3.9-2.5-3.9-1.1.3 6.2 1.7 3 3.6 5.2 4 4.9.5-.3.7-1.1.5-1.7-.3-.7-.2-1.7.1-2.3.4-.5 8.1-5.1 17.1-10.2 11.8-6.7 16.6-9 17.4-8.2.6.6 1.7 1.1 2.4 1.1.9 0 .3-2-1.9-6-3.1-5.7-6.2-8.1-5.1-4.1zM591.1 465.6c-3.5 5.8-3.6 7.3-.4 5.4 1.6-1.1 4.2.2 18.6 9 14 8.6 16.7 10.7 16.7 12.6 0 3.7 1.2 2.9 4.9-3.2 3.3-5.5 3.6-7.9.6-5.4-1.3 1.1-3.6 0-15.3-7-21.5-13.1-20.3-12.2-19.7-14.8 1-4.1-1.9-2.3-5.4 3.4zM128.5 468c.7 2.2-.5 3-19.9 14-11.2 6.4-13.1 7.1-14.8 6.1-3.3-2-3.3-.4-.1 5.5 2.9 5.3 5.1 6.9 4.6 3.2-.4-2.4 33.3-21.6 35-19.9.6.6 1.7 1.1 2.4 1.1.8 0 .1-2.2-2-6-1.7-3.3-3.8-6-4.5-6-.9 0-1.1.7-.7 2zM583.3 478.7c-4.3 7.1-4.4 8.6-.4 6.2 1.5-1 4.3.4 18.5 9.1 12.4 7.6 16.6 10.7 16.4 12-.6 3.3 1.7 1.8 4.9-3.3 2.9-4.7 3.5-8.3 1-5.8-.6.6-1.7 1.1-2.5 1.1-.7 0-8.5-4.4-17.3-9.8-12.7-7.8-15.9-10.1-15.9-11.9 0-3.9-1.4-3.2-4.7 2.4zM136.3 482.2c.2 1.9-2.2 3.6-16.2 11.6-13.7 7.8-16.8 9.2-18.3 8.3-4.3-2.7-3.8-.9 3.4 11.9 5.8 10.2 8.8 13.8 7.5 9-.3-1.1-.1-2.3.5-2.6 1.1-.7 27.1-7.5 27.3-7.1.1.1-4.5 4.6-10.2 10-9.7 9.2-10.5 9.8-12.2 8.3-3.2-2.9-3.1-.4.2 5.5 3.1 5.7 5.5 7.3 4.9 3.2-.2-1.3 1-3.2 3.5-5.3 2.1-1.8 9.3-8.7 16.1-15.2 16.7-16.1 16.5-16.2-11-9.1-23 6-25.4 6-25.3.6 0-2.3 1.9-3.7 16.8-12.1 13.9-7.8 17-9.2 18.2-8.2 2.9 2.4 2.8.1-.1-5.5-3-5.6-5.6-7.3-5.1-3.3z"/><path d="M575.1 492c-1.7 2.8-3.1 5.5-3.1 6 0 1.3 1.7 1.3 2.5-.1 1-1.5 1.9-1 17.9 8.8 16.9 10.3 17.8 11.1 17 13.5-1.1 3.7 1.6 1.6 5.1-3.8 3.7-5.8 3.9-7.7.4-5.6-1.8 1.2-3.8.2-18.7-9-14.3-8.9-16.7-10.7-16.4-12.6.5-3.7-1.4-2.5-4.7 2.8zM566.7 505.7c-3.7 6-3.9 8.1-.7 6.1 1.6-1 3.8 0 15.7 7.2 18.9 11.4 19.3 11.7 19.3 14.6 0 3.7 1.2 2.9 4.9-3.2 2.4-4.1 3-5.9 2.2-6.7-.8-.8-1.1-.8-1.1.1 0 2.7-4.3.8-19.6-8.6-12.6-7.7-15.9-10.2-15.9-11.9-.1-4-1.2-3.4-4.8 2.4zM206 564.2c0 .8.5 1.9 1 2.4.7.7-2 6.4-8.4 17.5-8 14-9.8 16.4-12 16.7-1.4.2-2.6.6-2.6 1s2.7 2.1 5.9 3.9c5.8 3.2 8.4 3.4 5.7.4-1.3-1.4-.3-3.6 8.1-18.4 8.1-14.2 9.9-16.7 11.9-16.7 3.7 0 2.9-1.2-2.8-4.5-6.9-3.9-6.8-3.9-6.8-2.3zM219.6 571.7c-.3.4.1 1.4.9 2.3 1.3 1.4.4 3.4-8.1 18.3-8.2 14.4-9.9 16.7-12 16.7-1.3 0-2.4.3-2.4.7 0 1.1 10.2 6.8 11.8 6.7.6-.1 1.2.2 1.2.6 0 1.4 9.9 6.9 10.6 5.9.3-.6-.1-1.6-1-2.2-1.4-1-.2-2.6 8.9-11.7 5.8-5.7 10.5-10.2 10.5-10 0 .3-1.7 6.3-3.8 13.5-3.5 11.9-4 13-6.2 13-4.2.1-3.1 1.9 2.9 5.2 6.1 3.2 7.8 3.4 5.9.4-.8-1.3.3-6.4 4.6-21.8 3.1-11 5.6-20.8 5.6-21.7 0-3.9-4.5-.6-18.9 13.8-15.8 15.8-17 16.6-20.5 12.7-1.4-1.5-.7-3.2 8-18.4 8.2-14.4 9.9-16.7 12-16.7 1.3 0 2.4-.3 2.4-.8 0-1.1-11.6-7.2-12.4-6.5zM485.3 578.6c-.3.9 2.2 10.9 5.6 22.2 4.1 13.8 5.8 20.9 5.1 21.6-1.3 1.3-1.3 2.6 0 2.6 1.4 0 10-5.4 10-6.3 0-.4-1.2-.6-2.7-.5-2.5.3-2.7-.1-6.4-12.2-2.1-6.9-3.8-13.1-3.6-13.8.1-.7 4.7 3.2 10.1 8.7 9.7 9.7 9.9 10.1 8.2 12-3.2 3.5.2 3.3 5.9-.5 6-4 6.8-5.4 3.2-5.4-1.7 0-6.9-4.4-17.9-15-8.6-8.3-15.9-15-16.2-15-.4 0-.9.7-1.3 1.6zM366 613.2c-.5 1.3-3 10.2-5.6 19.8-5.6 21-5.9 22-8 22-.8 0-1.4.6-1.2 1.2.6 1.8 11.8 2.1 11.8.4 0-.8-.8-1.6-1.9-1.9-1.7-.4-1.6-1.2 1.8-14.1 2-7.5 3.9-13.6 4.2-13.6.3 0 1.8 5.3 3.3 11.7 1.4 6.5 2.9 12.8 3.2 14 .5 1.9.2 2.3-1.5 2.3-1.2 0-2.1.6-2.1 1.5 0 1.2 1.4 1.5 7 1.5 5.3 0 7-.3 7-1.4 0-.7-.8-1.6-1.7-1.8-1.4-.4-2.9-4.9-6.7-20.4-2.7-10.9-5.3-20.7-5.8-21.7-1.2-2.3-2.7-2.1-3.8.5zM336 612.9c0 .5.9 1.3 2 1.6 1.9.6 2 1.5 2 20.2 0 18.6-.1 19.5-2 20-3.9 1-1.9 2.3 3.4 2.3 3 0 6.1.3 7 .6 1 .4 1.6.1 1.6-.9 0-.8-.9-1.7-2-2-1.9-.5-2-1.4-2-19.6 0-18 .1-19.2 2-20.3 3.4-2.2 2.3-2.8-5-2.8-3.8 0-7 .4-7 .9z"/></svg>