<svg width="194" height="100" viewBox="0 0 194 100" fill="none" xmlns="http://www.w3.org/2000/svg">
<path d="M4.55 37C4.55 34.8333 4.93333 32.7167 5.7 30.65C6.5 28.55 7.65 26.65 9.15 24.95C10.65 23.2167 12.4833 21.85 14.65 20.85C16.8167 19.8167 19.2833 19.3 22.05 19.3C25.3167 19.3 28.1333 20.0167 30.5 21.45C32.9 22.8833 34.6833 24.75 35.85 27.05L30.55 30.7C29.95 29.3667 29.1667 28.3167 28.2 27.55C27.2333 26.75 26.2 26.2 25.1 25.9C24 25.5667 22.9167 25.4 21.85 25.4C20.1167 25.4 18.6 25.75 17.3 26.45C16.0333 27.15 14.9667 28.0667 14.1 29.2C13.2333 30.3333 12.5833 31.6 12.15 33C11.75 34.4 11.55 35.8 11.55 37.2C11.55 38.7667 11.8 40.2833 12.3 41.75C12.8 43.1833 13.5 44.4667 14.4 45.6C15.3333 46.7 16.4333 47.5833 17.7 48.25C19 48.8833 20.4167 49.2 21.95 49.2C23.05 49.2 24.1667 49.0167 25.3 48.65C26.4333 48.2833 27.4833 47.7 28.45 46.9C29.4167 46.1 30.1667 45.0667 30.7 43.8L36.35 47.05C35.65 48.8167 34.5 50.3167 32.9 51.55C31.3333 52.7833 29.5667 53.7167 27.6 54.35C25.6333 54.9833 23.6833 55.3 21.75 55.3C19.2167 55.3 16.9 54.7833 14.8 53.75C12.7 52.6833 10.8833 51.2833 9.35 49.55C7.85 47.7833 6.66667 45.8167 5.8 43.65C4.96667 41.45 4.55 39.2333 4.55 37Z" fill="#008E97"/>
<path d="M98.15 55.5C96.0167 55.5 94.1 55.15 92.4 54.45C90.7 53.7167 89.25 52.7167 88.05 51.45C86.8833 50.1833 85.9833 48.7333 85.35 47.1C84.7167 45.4667 84.4 43.75 84.4 41.95C84.4 40.1167 84.7167 38.3833 85.35 36.75C85.9833 35.1167 86.8833 33.6667 88.05 32.4C89.25 31.1333 90.7 30.15 92.4 29.45C94.1 28.7167 96.0167 28.35 98.15 28.35C100.283 28.35 102.183 28.7167 103.85 29.45C105.55 30.15 107 31.1333 108.2 32.4C109.4 33.6667 110.3 35.1167 110.9 36.75C111.533 38.3833 111.85 40.1167 111.85 41.95C111.85 43.75 111.533 45.4667 110.9 47.1C110.3 48.7333 109.4 50.1833 108.2 51.45C107.033 52.7167 105.6 53.7167 103.9 54.45C102.2 55.15 100.283 55.5 98.15 55.5ZM91.3 41.95C91.3 43.4833 91.6 44.85 92.2 46.05C92.8 47.2167 93.6167 48.1333 94.65 48.8C95.6833 49.4667 96.85 49.8 98.15 49.8C99.4167 49.8 100.567 49.4667 101.6 48.8C102.633 48.1 103.45 47.1667 104.05 46C104.683 44.8 105 43.4333 105 41.9C105 40.4 104.683 39.05 104.05 37.85C103.45 36.65 102.633 35.7167 101.6 35.05C100.567 34.3833 99.4167 34.05 98.15 34.05C96.85 34.05 95.6833 34.4 94.65 35.1C93.6167 35.7667 92.8 36.7 92.2 37.9C91.6 39.0667 91.3 40.4167 91.3 41.95ZM128.572 55.5C126.439 55.5 124.522 55.15 122.822 54.45C121.122 53.7167 119.672 52.7167 118.472 51.45C117.272 50.15 116.339 48.6833 115.672 47.05C115.039 45.4167 114.722 43.7 114.722 41.9C114.722 39.4333 115.272 37.1833 116.372 35.15C117.506 33.0833 119.106 31.4333 121.172 30.2C123.239 28.9667 125.689 28.35 128.522 28.35C131.356 28.35 133.789 28.9667 135.822 30.2C137.856 31.4333 139.372 33.05 140.372 35.05L133.822 37.05C133.256 36.0833 132.506 35.35 131.572 34.85C130.639 34.3167 129.606 34.05 128.472 34.05C127.206 34.05 126.039 34.3833 124.972 35.05C123.939 35.6833 123.122 36.6 122.522 37.8C121.922 38.9667 121.622 40.3333 121.622 41.9C121.622 43.4333 121.922 44.8 122.522 46C123.156 47.1667 123.989 48.1 125.022 48.8C126.056 49.4667 127.206 49.8 128.472 49.8C129.272 49.8 130.022 49.6667 130.722 49.4C131.456 49.1333 132.106 48.7667 132.672 48.3C133.239 47.8333 133.656 47.3 133.922 46.7L140.472 48.7C139.872 50 138.989 51.1667 137.822 52.2C136.689 53.2333 135.339 54.05 133.772 54.65C132.239 55.2167 130.506 55.5 128.572 55.5ZM162.495 55L154.845 43.7L151.295 47.2V55H144.595V18.5H151.295V40.6L161.845 28.85H168.945L159.195 39.95L169.645 55H162.495ZM181.979 55.5C179.746 55.5 177.613 55.1333 175.579 54.4C173.546 53.6667 171.796 52.5833 170.329 51.15L172.729 46.8C174.296 48.0667 175.829 49 177.329 49.6C178.863 50.2 180.329 50.5 181.729 50.5C183.029 50.5 184.063 50.2667 184.829 49.8C185.629 49.3333 186.029 48.6333 186.029 47.7C186.029 47.0667 185.813 46.5833 185.379 46.25C184.946 45.8833 184.313 45.5667 183.479 45.3C182.679 45.0333 181.696 44.7333 180.529 44.4C178.596 43.7667 176.979 43.15 175.679 42.55C174.379 41.95 173.396 41.2 172.729 40.3C172.096 39.3667 171.779 38.1833 171.779 36.75C171.779 35.0167 172.213 33.5333 173.079 32.3C173.979 31.0333 175.213 30.05 176.779 29.35C178.379 28.65 180.246 28.3 182.379 28.3C184.246 28.3 186.013 28.6 187.679 29.2C189.346 29.7667 190.863 30.7 192.229 32L189.529 36.25C188.196 35.2167 186.929 34.4667 185.729 34C184.529 33.5 183.313 33.25 182.079 33.25C181.379 33.25 180.713 33.3333 180.079 33.5C179.479 33.6667 178.979 33.95 178.579 34.35C178.213 34.7167 178.029 35.25 178.029 35.95C178.029 36.5833 178.196 37.0833 178.529 37.45C178.896 37.7833 179.429 38.0833 180.129 38.35C180.863 38.6167 181.746 38.9167 182.779 39.25C184.879 39.85 186.646 40.4667 188.079 41.1C189.546 41.7333 190.646 42.5167 191.379 43.45C192.113 44.35 192.479 45.6 192.479 47.2C192.479 49.8 191.529 51.8333 189.629 53.3C187.729 54.7667 185.179 55.5 181.979 55.5Z" fill="#008E97"/>
<path d="M45.2303 10.4924C45.1056 8.60194 46.6054 7 48.5 7V7C50.3946 7 51.8944 8.60194 51.7697 10.4924L49.0574 51.6301C49.0194 52.2062 49.0759 52.7845 49.2246 53.3424L50.3558 57.5844C50.681 58.8038 49.762 60 48.5 60V60C47.238 60 46.319 58.8038 46.6442 57.5844L47.7754 53.3424C47.9241 52.7845 47.9806 52.2062 47.9426 51.6301L45.2303 10.4924Z" fill="#D5D917"/>
<path d="M42 52.5C42 51.2577 43.2021 50.3699 44.3894 50.7352L47.6715 51.7451C48.2185 51.9134 48.7932 51.9729 49.3632 51.9203L77.5148 49.3217C79.3855 49.149 81 50.6214 81 52.5V52.5C81 54.3786 79.3855 55.851 77.5148 55.6783L49.3632 53.0797C48.7932 53.0271 48.2185 53.0866 47.6715 53.2549L44.3894 54.2648C43.2021 54.6301 42 53.7423 42 52.5V52.5Z" fill="#833185"/>
<path d="M22.8695 11.6923C28.1628 8.39216 34.0542 6.16687 40.2075 5.14355C46.3608 4.12022 52.6554 4.3189 58.7319 5.72823C64.8084 7.13755 70.5478 9.72994 75.6224 13.3574C80.697 16.9848 85.0075 21.5762 88.3077 26.8695" stroke="#008E97"/>
</svg>
