<svg width="640" height="512" viewBox="0 0 640 512" fill="none" xmlns="http://www.w3.org/2000/svg">
<g clip-path="url(#clip0_19156_96)">
<path d="M406.1 61.65C415.4 63.09 419.4 74.59 412.6 81.41L374.6 118.1L383.6 170.1C384.1 179.5 375.3 186.7 366.7 182.4L320.2 157.9L273.3 182.7C264.7 187 255 179.8 256.4 170.5L265.4 118.4L227.4 81.41C220.6 74.59 224.6 63.09 233.9 61.65L286.2 54.11L309.8 6.33196C314.1 -2.28904 326.3 -1.93004 330.2 6.33196L353.8 54.11L406.1 61.65V61.65ZM384 256C401.7 256 416 270.3 416 288V480C416 497.7 401.7 512 384 512H256C238.3 512 224 497.7 224 480V288C224 270.3 238.3 256 256 256H384ZM160 320C177.7 320 192 334.3 192 352V480C192 497.7 177.7 512 160 512H32C14.33 512 0 497.7 0 480V352C0 334.3 14.33 320 32 320H160ZM448 416C448 398.3 462.3 384 480 384H608C625.7 384 640 398.3 640 416V480C640 497.7 625.7 512 608 512H480C462.3 512 448 497.7 448 480V416Z" fill="#833185"/>
</g>
<defs>
<clipPath id="clip0_19156_96">
<rect width="640" height="512" fill="white"/>
</clipPath>
</defs>
</svg>
